<?xml version="1.0" encoding="utf-8"?>
<!-- Generator: Adobe Illustrator 16.0.0, SVG Export Plug-In . SVG Version: 6.00 Build 0)  -->
<!DOCTYPE svg PUBLIC "-//W3C//DTD SVG 1.1//EN" "http://www.w3.org/Graphics/SVG/1.1/DTD/svg11.dtd">
<svg version="1.1" id="Layer_1" xmlns="http://www.w3.org/2000/svg" xmlns:xlink="http://www.w3.org/1999/xlink" x="0px" y="0px"
	 width="100px" height="100px" viewBox="0 0 100 100" enable-background="new 0 0 100 100" xml:space="preserve">
<path fill="#FFFFFF" stroke="#ED1C24" stroke-width="5" stroke-miterlimit="10" d="M49.633,68.058
	c7.734,9.866,0.367,22.2,5.734,22.2c11.066,0,10.666-9.733,10.666-14.667c0-4.933-3.099-7.696-3.099-14.097
	c0-11.97,22.565-6.17,22.565-15.504c0-5.532-3.8-7.199-3.8-7.199s3.467-8.533-4.267-11.333c2.333-8.467-5.733-9.667-5.733-9.667
	s6-7.066-11.2-7.066s-23.667,9.934-23.667,9.934l-12.8,0.199c0,0-9.533-0.732-9.533,14.134s1.133,16.666,11.934,16.666
	c10.8,0,14.533,5.2,14.533,5.2L49.633,68.058z"/>
</svg>
