<?xml version="1.0" encoding="utf-8"?>
<!-- Generator: Adobe Illustrator 16.0.0, SVG Export Plug-In . SVG Version: 6.00 Build 0)  -->
<!DOCTYPE svg PUBLIC "-//W3C//DTD SVG 1.1//EN" "http://www.w3.org/Graphics/SVG/1.1/DTD/svg11.dtd">
<svg version="1.1" id="Layer_1" xmlns="http://www.w3.org/2000/svg" xmlns:xlink="http://www.w3.org/1999/xlink" x="0px" y="0px"
	 width="100px" height="100px" viewBox="0 0 100 100" enable-background="new 0 0 100 100" xml:space="preserve">
<path fill="#FFFFFF" stroke="#00A651" stroke-width="5" stroke-miterlimit="10" d="M50.367,30.925
	c-7.733-9.867-0.367-22.2-5.733-22.2c-11.067,0-10.667,9.733-10.667,14.667c0,4.933,3.099,7.696,3.099,14.096
	c0,11.97-22.565,6.17-22.565,15.504c0,5.532,3.8,7.199,3.8,7.199s-3.466,8.533,4.267,11.333c-2.333,8.467,5.733,9.667,5.733,9.667
	s-6,7.066,11.2,7.066c17.2,0,23.667-9.934,23.667-9.934l12.8-0.199c0,0,9.533,0.732,9.533-14.134s-1.133-16.667-11.934-16.667
	c-10.8,0-14.533-5.2-14.533-5.2L50.367,30.925z"/>
</svg>
